<svg width="50" height="48" viewBox="0 0 50 48" fill="none" xmlns="http://www.w3.org/2000/svg">
    <circle cx="21.8691" cy="21.7764" r="21.7764" fill="#4F76D9"/>
    <path d="M20.0319 28.5419C21.9459 28.5419 23.5319 27.0106 23.5319 25.0419C23.5319 23.1278 21.9459 21.5419 20.0319 21.5419C18.0631 21.5419 16.5319 23.1278 16.5319 25.0419C16.5319 27.0106 18.0631 28.5419 20.0319 28.5419ZM44.5319 28.5419C46.4459 28.5419 48.0319 27.0106 48.0319 25.0419C48.0319 23.1278 46.4459 21.5419 44.5319 21.5419C42.5631 21.5419 41.0319 23.1278 41.0319 25.0419C41.0319 27.0106 42.5631 28.5419 44.5319 28.5419ZM46.2819 30.2919H42.7819C41.7975 30.2919 40.9225 30.7294 40.2662 31.3309C42.5084 32.5341 44.0397 34.7216 44.4225 37.2919H48.0319C48.9615 37.2919 49.7819 36.5262 49.7819 35.5419V33.7919C49.7819 31.8778 48.1959 30.2919 46.2819 30.2919ZM32.2819 30.2919C35.6178 30.2919 38.4069 27.5575 38.4069 24.1669C38.4069 20.8309 35.6178 18.0419 32.2819 18.0419C28.8912 18.0419 26.1569 20.8309 26.1569 24.1669C26.1569 27.5575 28.8912 30.2919 32.2819 30.2919ZM36.4381 32.0419H36.0006C34.8522 32.5887 33.5944 32.9169 32.2819 32.9169C30.9147 32.9169 29.6569 32.5887 28.5084 32.0419H28.0709C24.5709 32.0419 21.7819 34.8856 21.7819 38.3856V39.9169C21.7819 41.3934 22.9303 42.5419 24.4069 42.5419H40.1569C41.5787 42.5419 42.7819 41.3934 42.7819 39.9169V38.3856C42.7819 34.8856 39.9381 32.0419 36.4381 32.0419ZM24.2428 31.3309C23.5865 30.7294 22.7115 30.2919 21.7819 30.2919H18.2819C16.3131 30.2919 14.7819 31.8778 14.7819 33.7919V35.5419C14.7819 36.5262 15.5475 37.2919 16.5319 37.2919H20.0865C20.4694 34.7216 22.0006 32.5341 24.2428 31.3309Z" fill="white"/>
</svg>